<?xml version="1.0" standalone="no"?>
<!DOCTYPE svg PUBLIC "-//W3C//DTD SVG 20010904//EN"
 "http://www.w3.org/TR/2001/REC-SVG-20010904/DTD/svg10.dtd">
<svg version="1.0" xmlns="http://www.w3.org/2000/svg"
 width="500.000000pt" height="500.000000pt" viewBox="0 0 500.000000 500.000000"
 preserveAspectRatio="xMidYMid meet">
<metadata>
Created by potrace 1.14, written by Peter Selinger 2001-2017
</metadata>
<g transform="translate(0.000000,500.000000) scale(0.100000,-0.100000)"
fill="#000000" stroke="none">
<path d="M3758 4957 c-96 -33 -107 -46 -101 -115 2 -31 15 -112 29 -179 13
-68 24 -125 24 -129 0 -3 -24 15 -52 39 -105 88 -329 207 -493 260 -138 45
-366 95 -480 107 -127 14 -442 8 -559 -9 -91 -14 -149 -29 -266 -69 -360 -124
-563 -253 -840 -532 -85 -85 -178 -175 -207 -198 -89 -73 -224 -141 -343 -173
-61 -16 -210 -13 -272 6 -28 8 -53 13 -55 11 -7 -7 59 -57 111 -84 46 -24 64
-27 177 -30 145 -4 210 6 292 48 34 17 57 24 57 17 0 -7 -36 -55 -80 -107
-117 -140 -181 -239 -284 -443 -96 -190 -167 -382 -225 -607 -48 -188 -54
-246 -54 -525 0 -237 2 -268 22 -355 13 -52 26 -98 30 -102 3 -4 7 77 7 180 2
147 7 210 23 292 22 109 110 395 118 386 3 -3 0 -40 -6 -83 -6 -43 -13 -112
-16 -153 -4 -41 -13 -113 -20 -160 -32 -192 -39 -316 -27 -428 16 -142 36
-221 82 -317 42 -87 109 -164 171 -196 67 -34 63 -21 -17 59 -73 71 -82 85
-115 172 -61 158 -89 334 -74 466 l8 69 18 -85 c52 -237 82 -326 150 -446 45
-78 164 -220 173 -205 6 10 -38 229 -59 290 -8 25 -15 58 -14 75 0 26 4 21 23
-32 13 -35 40 -89 60 -121 26 -43 37 -74 41 -117 6 -57 27 -170 45 -244 5 -19
11 -60 15 -90 l6 -55 -92 -55 c-174 -104 -208 -130 -237 -178 l-27 -47 0 -245
c0 -223 2 -252 22 -318 16 -55 19 -80 12 -99 -5 -14 -13 -43 -18 -64 l-9 -39
2009 0 2008 0 5 32 c34 215 38 292 19 343 -8 22 -17 53 -20 68 -4 19 -37 57
-106 120 -319 292 -563 528 -577 558 -6 14 -25 33 -41 43 -15 9 -56 50 -89 91
l-60 74 53 57 53 57 27 -83 c28 -85 62 -144 77 -135 5 3 4 20 -1 38 -5 17 -9
61 -9 97 0 72 13 99 110 235 28 38 50 76 50 82 0 7 4 13 10 13 5 0 19 18 30
40 11 22 24 40 29 40 5 0 12 -24 15 -52 18 -135 87 -350 143 -447 59 -101 139
-161 213 -160 35 1 35 1 -14 17 -102 34 -184 143 -240 317 -39 124 -86 331
-86 383 0 83 10 82 90 -12 66 -77 100 -103 100 -76 0 5 -11 26 -25 46 -32 47
-64 152 -71 229 l-5 60 31 -65 c17 -35 37 -71 45 -80 7 -8 30 -79 49 -156 20
-78 53 -190 75 -250 21 -60 45 -129 52 -153 15 -48 46 -73 37 -30 -3 13 -13
58 -23 99 -9 41 -21 113 -26 160 -11 105 -23 350 -16 350 3 0 21 -28 40 -63
20 -34 63 -98 96 -142 141 -183 246 -267 418 -333 95 -37 93 -36 93 -18 0 8
-11 17 -25 20 -39 10 -91 62 -159 160 -76 109 -123 208 -176 365 -84 255 -94
311 -68 420 l14 64 21 -64 c28 -86 45 -89 37 -7 -18 207 -43 298 -133 494 -48
105 -62 154 -43 154 5 0 24 -24 42 -52 19 -29 71 -98 117 -153 175 -211 270
-366 328 -540 38 -111 44 -263 17 -392 -20 -94 -13 -122 14 -58 11 26 14 82
14 234 0 198 0 200 -35 320 -19 66 -57 173 -85 238 -29 65 -54 124 -57 132 -5
10 -1 10 18 -2 13 -9 55 -28 92 -42 87 -32 86 -11 -1 25 -132 54 -131 53 -299
391 -83 167 -165 340 -182 384 -49 126 -121 380 -141 495 -31 176 -39 210 -58
253 -40 90 -130 167 -195 167 -38 0 -39 0 -25 23 33 50 81 142 89 170 11 39
-5 75 -71 160 -51 68 -52 70 -46 121 4 29 4 60 0 69 -15 41 -145 48 -246 14z"/>
</g>
</svg>
